<svg data-v-fde0c5aa="" xmlns="http://www.w3.org/2000/svg" viewBox="0 0 300 300" class="font"><!----><defs data-v-fde0c5aa=""><!----></defs><rect data-v-fde0c5aa="" fill="#522E46" x="0" y="0" width="300px" height="300px" class="logo-background-square"></rect><defs data-v-fde0c5aa=""><!----></defs><g data-v-fde0c5aa="" id="579c9c56-8362-4164-a2c2-5e81ee929999" fill="#D5706D" transform="matrix(3.3618580652863495,0,0,3.3618580652863495,38.823349596996835,125.5256733808989)"><path d="M6.23 8.89L9.02 8.89C8.62 10.38 7.56 11.13 5.81 11.13C4.83 11.13 4.00 10.81 3.33 10.16C2.65 9.51 2.31 8.69 2.31 7.70C2.31 6.71 2.65 5.89 3.33 5.24C4.00 4.59 4.83 4.27 5.81 4.27C6.45 4.27 7.05 4.39 7.61 4.64C8.16 4.89 8.59 5.26 8.88 5.75L10.15 4.55C9.31 3.20 7.86 2.52 5.81 2.52C4.23 2.52 2.93 3.00 1.90 3.97C0.87 4.93 0.35 6.18 0.35 7.70C0.35 9.22 0.87 10.46 1.90 11.43C2.93 12.40 4.23 12.88 5.81 12.88C7.43 12.88 8.70 12.40 9.62 11.44C10.53 10.48 10.99 9.18 10.99 7.56L10.99 7.14L6.23 7.14ZM12.68 8.15C12.88 8.01 13.18 7.87 13.59 7.73C13.99 7.59 14.40 7.52 14.81 7.52C15.67 7.52 16.10 7.80 16.10 8.37L16.10 9.02C15.58 8.75 14.91 8.61 14.08 8.61C13.81 8.61 13.54 8.65 13.27 8.72C12.99 8.80 12.72 8.91 12.45 9.07C12.19 9.23 11.97 9.46 11.80 9.75C11.63 10.04 11.55 10.39 11.55 10.78C11.55 11.41 11.78 11.89 12.23 12.23C12.68 12.57 13.31 12.74 14.11 12.74C15.09 12.74 15.75 12.41 16.10 11.75L16.10 12.60L17.99 12.60L17.99 7.98C17.99 7.31 17.71 6.80 17.14 6.46C16.57 6.12 15.79 5.95 14.81 5.95C14.29 5.95 13.79 6.04 13.31 6.22C12.83 6.39 12.44 6.59 12.14 6.80ZM13.45 10.58C13.45 10.08 13.92 9.83 14.84 9.83C15.32 9.83 15.74 9.90 16.10 10.04L16.10 10.08C16.10 10.51 15.96 10.82 15.67 11.03C15.38 11.23 15.00 11.33 14.53 11.33C14.21 11.33 13.94 11.26 13.75 11.13C13.55 11.00 13.45 10.82 13.45 10.58ZM21.70 8.82C21.70 8.48 21.80 8.21 21.99 8.00C22.19 7.79 22.47 7.69 22.85 7.69C23.53 7.69 23.87 8.02 23.87 8.68L23.87 12.60L25.76 12.60L25.76 8.82C25.76 8.48 25.86 8.21 26.05 8.00C26.25 7.79 26.53 7.69 26.91 7.69C27.59 7.69 27.93 8.02 27.93 8.68L27.93 12.60L29.82 12.60L29.82 8.40C29.82 7.60 29.62 7.00 29.23 6.60C28.84 6.20 28.30 6.01 27.61 6.01C27.15 6.01 26.74 6.11 26.38 6.32C26.01 6.53 25.72 6.82 25.51 7.18C25.15 6.40 24.50 6.01 23.55 6.01C22.81 6.01 22.19 6.37 21.70 7.11L21.70 6.16L19.67 6.16L19.67 12.60L21.70 12.60ZM36.02 8.62L32.90 8.62C32.97 8.22 33.17 7.91 33.49 7.69C33.81 7.46 34.16 7.35 34.55 7.35C35.41 7.35 35.90 7.77 36.02 8.62ZM32.89 9.87L37.98 9.87C38.00 9.69 38.01 9.49 38.01 9.25C38.01 8.25 37.70 7.44 37.07 6.85C36.45 6.25 35.61 5.95 34.55 5.95C33.48 5.95 32.61 6.27 31.94 6.92C31.27 7.57 30.94 8.39 30.94 9.38C30.94 10.38 31.26 11.19 31.90 11.81C32.54 12.43 33.42 12.74 34.55 12.74C36.19 12.74 37.31 12.10 37.93 10.82L36.13 10.42C35.84 10.99 35.32 11.27 34.55 11.27C33.60 11.27 33.04 10.80 32.89 9.87ZM39.20 2.80L39.20 12.60L42.63 12.60C43.72 12.60 44.61 12.36 45.29 11.87C45.97 11.39 46.31 10.65 46.31 9.66C46.31 8.58 45.72 7.80 44.53 7.34C45.35 6.98 45.75 6.36 45.75 5.46C45.75 4.62 45.46 3.97 44.86 3.50C44.27 3.03 43.43 2.80 42.35 2.80ZM41.16 6.58L41.16 4.55L42.35 4.55C43.31 4.55 43.79 4.88 43.79 5.53C43.79 6.23 43.31 6.58 42.35 6.58ZM41.16 8.26L42.63 8.26C43.14 8.26 43.56 8.37 43.88 8.60C44.19 8.82 44.35 9.15 44.35 9.59C44.35 10.43 43.78 10.85 42.63 10.85L41.16 10.85ZM47.50 3.61C47.50 3.91 47.62 4.17 47.84 4.38C48.07 4.60 48.35 4.70 48.66 4.70C48.98 4.70 49.25 4.60 49.48 4.38C49.71 4.17 49.83 3.91 49.83 3.61C49.83 3.31 49.71 3.06 49.48 2.84C49.25 2.63 48.98 2.52 48.66 2.52C48.35 2.52 48.07 2.63 47.84 2.84C47.62 3.06 47.50 3.31 47.50 3.61ZM47.70 6.16L47.70 12.60L49.62 12.60L49.62 6.16ZM50.88 9.38C50.88 10.50 51.18 11.34 51.80 11.90C52.42 12.46 53.20 12.74 54.14 12.74C55.17 12.74 55.95 12.30 56.48 11.41L56.48 12.60L58.37 12.60L58.37 1.68L56.48 1.68L56.48 7.35C55.95 6.46 55.17 6.02 54.14 6.02C53.20 6.02 52.42 6.30 51.80 6.86C51.18 7.42 50.88 8.26 50.88 9.38ZM52.78 9.38C52.78 8.89 52.96 8.48 53.31 8.17C53.66 7.86 54.10 7.70 54.63 7.70C55.16 7.70 55.60 7.84 55.95 8.11C56.30 8.39 56.48 8.81 56.48 9.38C56.48 9.95 56.30 10.37 55.95 10.65C55.60 10.92 55.16 11.06 54.63 11.06C54.08 11.06 53.63 10.92 53.29 10.63C52.95 10.35 52.78 9.93 52.78 9.38ZM62.47 7.91L59.21 12.60L65.23 12.60L65.23 10.85L62.52 10.85L65.79 6.16L59.77 6.16L59.77 7.91Z"></path></g><!----><!----></svg>